<svg xmlns="http://www.w3.org/2000/svg" width="1200" height="630" viewBox="0 0 1200 630" fill="none">
<rect width="1200" height="630" fill="#F5F2E8"/>
<g clip-path="url(#clip0_475_690)">
<mask id="path-1-inside-1_475_690" fill="white">
<path d="M60 60H1140V570H60V60Z"/>
</mask>
//{title}
//{date}
<path d="M813.088 525.7L813.608 524.66H827.388L827.752 525.7H813.088ZM839.348 539.376C839.487 539.376 839.556 539.48 839.556 539.688C839.556 539.896 839.487 540 839.348 540C838.343 540 837.32 539.965 836.28 539.896C835.24 539.827 834.235 539.792 833.264 539.792C832.189 539.792 831.253 539.827 830.456 539.896C829.659 539.965 828.775 540 827.804 540C827.665 540 827.596 539.896 827.596 539.688C827.596 539.48 827.665 539.376 827.804 539.376C829.641 539.376 830.785 539.116 831.236 538.596C831.687 538.041 831.565 537.019 830.872 535.528L819.328 511.14L820.628 509.528L810.54 533.396C809.673 535.511 809.621 537.036 810.384 537.972C811.147 538.908 812.655 539.376 814.908 539.376C815.081 539.376 815.168 539.48 815.168 539.688C815.168 539.896 815.081 540 814.908 540C813.868 540 812.915 539.965 812.048 539.896C811.181 539.827 810.089 539.792 808.772 539.792C807.524 539.792 806.519 539.827 805.756 539.896C805.028 539.965 804.127 540 803.052 540C802.913 540 802.844 539.896 802.844 539.688C802.844 539.48 802.913 539.376 803.052 539.376C803.988 539.376 804.803 539.203 805.496 538.856C806.189 538.475 806.831 537.833 807.42 536.932C808.044 535.996 808.72 534.661 809.448 532.928L820.42 507.032C820.489 506.928 820.611 506.876 820.784 506.876C820.957 506.876 821.061 506.928 821.096 507.032L833.368 532.876C834.165 534.575 834.876 535.909 835.5 536.88C836.124 537.816 836.731 538.475 837.32 538.856C837.944 539.203 838.62 539.376 839.348 539.376ZM847.052 513.584C847.052 515.005 847.398 516.236 848.092 517.276C848.82 518.281 849.738 519.165 850.848 519.928C851.957 520.691 853.136 521.453 854.384 522.216C855.666 522.944 856.897 523.724 858.076 524.556C859.289 525.388 860.277 526.376 861.04 527.52C861.837 528.664 862.236 530.068 862.236 531.732C862.236 533.396 861.82 534.904 860.988 536.256C860.156 537.573 858.942 538.631 857.348 539.428C855.788 540.225 853.846 540.624 851.524 540.624C850.692 540.624 849.86 540.555 849.028 540.416C848.23 540.312 847.416 540.121 846.584 539.844C845.786 539.567 844.989 539.22 844.192 538.804C844.018 538.7 843.897 538.579 843.828 538.44C843.793 538.267 843.758 538.059 843.724 537.816L843.048 530.744C843.013 530.571 843.082 530.484 843.256 530.484C843.464 530.449 843.585 530.501 843.62 530.64C843.862 531.68 844.209 532.737 844.66 533.812C845.11 534.887 845.7 535.875 846.428 536.776C847.156 537.677 848.04 538.405 849.08 538.96C850.12 539.515 851.333 539.792 852.72 539.792C853.725 539.792 854.696 539.601 855.632 539.22C856.602 538.839 857.382 538.215 857.972 537.348C858.596 536.481 858.908 535.303 858.908 533.812C858.908 532.113 858.526 530.709 857.764 529.6C857.036 528.456 856.1 527.468 854.956 526.636C853.812 525.804 852.598 525.024 851.316 524.296C850.102 523.533 848.924 522.753 847.78 521.956C846.67 521.159 845.752 520.223 845.024 519.148C844.33 518.039 843.984 516.669 843.984 515.04C843.984 513.203 844.452 511.695 845.388 510.516C846.324 509.303 847.537 508.401 849.028 507.812C850.518 507.223 852.061 506.928 853.656 506.928C854.626 506.928 855.632 507.032 856.672 507.24C857.712 507.413 858.734 507.725 859.74 508.176C860.017 508.28 860.208 508.419 860.312 508.592C860.45 508.731 860.52 508.887 860.52 509.06L860.884 514.988C860.884 515.127 860.797 515.213 860.624 515.248C860.45 515.248 860.329 515.179 860.26 515.04C860.19 514.347 860 513.584 859.688 512.752C859.376 511.885 858.925 511.071 858.336 510.308C857.746 509.545 857.001 508.921 856.1 508.436C855.198 507.951 854.106 507.708 852.824 507.708C851.472 507.708 850.362 508.003 849.496 508.592C848.664 509.147 848.04 509.875 847.624 510.776C847.242 511.643 847.052 512.579 847.052 513.584ZM894.799 513.22C894.799 511.521 894.417 510.256 893.655 509.424C892.927 508.557 891.8 508.124 890.275 508.124C890.171 508.124 890.119 508.02 890.119 507.812C890.119 507.604 890.171 507.5 890.275 507.5C891.072 507.5 891.887 507.535 892.719 507.604C893.551 507.639 894.469 507.656 895.475 507.656C896.272 507.656 897.087 507.639 897.919 507.604C898.751 507.535 899.513 507.5 900.207 507.5C900.276 507.5 900.311 507.604 900.311 507.812C900.311 508.02 900.276 508.124 900.207 508.124C898.82 508.124 897.78 508.557 897.087 509.424C896.393 510.256 896.047 511.521 896.047 513.22V527.988C896.047 530.657 895.527 532.945 894.487 534.852C893.481 536.724 892.06 538.163 890.223 539.168C888.385 540.173 886.236 540.676 883.775 540.676C881.209 540.676 878.956 540.173 877.015 539.168C875.108 538.163 873.617 536.741 872.543 534.904C871.503 533.032 870.983 530.848 870.983 528.352V511.712C870.983 510.707 870.879 509.961 870.671 509.476C870.463 508.956 870.029 508.609 869.371 508.436C868.747 508.228 867.811 508.124 866.563 508.124C866.493 508.124 866.459 508.02 866.459 507.812C866.459 507.604 866.493 507.5 866.563 507.5C867.395 507.5 868.313 507.535 869.319 507.604C870.359 507.639 871.468 507.656 872.647 507.656C873.86 507.656 874.987 507.639 876.027 507.604C877.067 507.535 877.968 507.5 878.731 507.5C878.835 507.5 878.887 507.604 878.887 507.812C878.887 508.02 878.835 508.124 878.731 508.124C877.483 508.124 876.547 508.228 875.923 508.436C875.299 508.644 874.883 509.008 874.675 509.528C874.467 510.048 874.363 510.811 874.363 511.816V526.532C874.363 530.657 875.281 533.795 877.119 535.944C878.991 538.059 881.591 539.116 884.919 539.116C888.039 539.116 890.465 538.145 892.199 536.204C893.932 534.228 894.799 531.507 894.799 528.04V513.22ZM907.655 535.788V511.712C907.655 510.707 907.551 509.961 907.343 509.476C907.135 508.956 906.702 508.609 906.043 508.436C905.419 508.228 904.483 508.124 903.235 508.124C903.166 508.124 903.131 508.02 903.131 507.812C903.131 507.604 903.166 507.5 903.235 507.5C904.067 507.5 905.003 507.535 906.043 507.604C907.083 507.639 908.175 507.656 909.319 507.656C910.567 507.656 911.694 507.639 912.699 507.604C913.739 507.535 914.658 507.5 915.455 507.5C915.559 507.5 915.611 507.604 915.611 507.812C915.611 508.02 915.559 508.124 915.455 508.124C914.207 508.124 913.271 508.228 912.647 508.436C912.023 508.644 911.59 509.008 911.347 509.528C911.139 510.048 911.035 510.811 911.035 511.816V535.788C911.035 536.793 911.139 537.556 911.347 538.076C911.555 538.596 911.971 538.943 912.595 539.116C913.254 539.289 914.207 539.376 915.455 539.376C915.559 539.376 915.611 539.48 915.611 539.688C915.611 539.896 915.559 540 915.455 540C914.623 540 913.705 539.983 912.699 539.948C911.694 539.913 910.567 539.896 909.319 539.896C908.175 539.896 907.066 539.913 905.991 539.948C904.951 539.983 904.015 540 903.183 540C903.114 540 903.079 539.896 903.079 539.688C903.079 539.48 903.114 539.376 903.183 539.376C904.431 539.376 905.385 539.289 906.043 539.116C906.702 538.943 907.135 538.596 907.343 538.076C907.551 537.556 907.655 536.793 907.655 535.788ZM920.707 532.46L912.439 522.06L915.039 519.98L922.631 529.652C924.191 531.697 925.509 533.344 926.583 534.592C927.693 535.84 928.611 536.811 929.339 537.504C930.067 538.163 930.709 538.631 931.263 538.908C931.853 539.151 932.407 539.289 932.927 539.324C933.447 539.359 934.037 539.376 934.695 539.376C934.799 539.376 934.851 539.48 934.851 539.688C934.851 539.896 934.799 540 934.695 540C933.135 540 931.887 540 930.951 540C930.015 540 929.322 540 928.871 540C928.559 540 928.299 540 928.091 540C927.918 540.035 927.727 540.052 927.519 540.052C927.034 540.052 926.635 539.965 926.323 539.792C926.046 539.619 925.717 539.272 925.335 538.752C924.954 538.232 924.399 537.469 923.671 536.464C922.978 535.459 921.99 534.124 920.707 532.46ZM908.747 525.076L922.163 511.712C923.446 510.395 923.983 509.476 923.775 508.956C923.602 508.401 922.614 508.124 920.811 508.124C920.742 508.124 920.707 508.02 920.707 507.812C920.707 507.604 920.742 507.5 920.811 507.5C921.678 507.5 922.545 507.535 923.411 507.604C924.278 507.639 925.422 507.656 926.843 507.656C928.195 507.656 929.27 507.639 930.067 507.604C930.865 507.535 931.627 507.5 932.355 507.5C932.459 507.5 932.511 507.604 932.511 507.812C932.511 508.02 932.459 508.124 932.355 508.124C931.107 508.124 929.669 508.419 928.039 509.008C926.41 509.563 924.85 510.568 923.359 512.024L910.047 525.076H908.747ZM945.272 525.7L945.792 524.66H959.572L959.936 525.7H945.272ZM971.532 539.376C971.67 539.376 971.74 539.48 971.74 539.688C971.74 539.896 971.67 540 971.532 540C970.526 540 969.504 539.965 968.464 539.896C967.424 539.827 966.418 539.792 965.448 539.792C964.373 539.792 963.437 539.827 962.64 539.896C961.842 539.965 960.958 540 959.988 540C959.849 540 959.78 539.896 959.78 539.688C959.78 539.48 959.849 539.376 959.988 539.376C961.825 539.376 962.969 539.116 963.42 538.596C963.87 538.041 963.749 537.019 963.056 535.528L951.512 511.14L952.812 509.528L942.724 533.396C941.857 535.511 941.805 537.036 942.568 537.972C943.33 538.908 944.838 539.376 947.092 539.376C947.265 539.376 947.352 539.48 947.352 539.688C947.352 539.896 947.265 540 947.092 540C946.052 540 945.098 539.965 944.232 539.896C943.365 539.827 942.273 539.792 940.956 539.792C939.708 539.792 938.702 539.827 937.94 539.896C937.212 539.965 936.31 540 935.236 540C935.097 540 935.028 539.896 935.028 539.688C935.028 539.48 935.097 539.376 935.236 539.376C936.172 539.376 936.986 539.203 937.68 538.856C938.373 538.475 939.014 537.833 939.604 536.932C940.228 535.996 940.904 534.661 941.632 532.928L952.604 507.032C952.673 506.928 952.794 506.876 952.968 506.876C953.141 506.876 953.245 506.928 953.28 507.032L965.552 532.876C966.349 534.575 967.06 535.909 967.684 536.88C968.308 537.816 968.914 538.475 969.504 538.856C970.128 539.203 970.804 539.376 971.532 539.376ZM1009.05 523.048L1002.34 539.948C1002.31 540.087 1002.12 540.156 1001.77 540.156C1001.46 540.156 1001.27 540.087 1001.2 539.948L988.251 511.816C987.869 510.88 987.471 510.152 987.055 509.632C986.639 509.077 986.171 508.696 985.651 508.488C985.165 508.245 984.559 508.124 983.831 508.124C983.727 508.124 983.675 508.02 983.675 507.812C983.675 507.604 983.727 507.5 983.831 507.5C984.316 507.5 984.784 507.517 985.235 507.552C985.685 507.587 986.153 507.621 986.639 507.656C987.124 507.656 987.627 507.656 988.147 507.656C989.117 507.656 989.967 507.656 990.695 507.656C991.457 507.621 992.116 507.587 992.671 507.552C993.26 507.517 993.815 507.5 994.335 507.5C994.439 507.5 994.491 507.604 994.491 507.812C994.491 508.02 994.439 508.124 994.335 508.124C992.983 508.124 992.064 508.367 991.579 508.852C991.093 509.303 991.163 510.221 991.787 511.608L1003.33 536.412L1001.46 538.908L1008.27 521.904L1009.05 523.048ZM1032.5 507.5C1032.57 507.5 1032.61 507.604 1032.61 507.812C1032.61 508.02 1032.57 508.124 1032.5 508.124C1031.36 508.124 1030.35 508.419 1029.49 509.008C1028.62 509.563 1027.86 510.637 1027.2 512.232L1016.12 539.948C1016.09 540.087 1015.9 540.156 1015.55 540.156C1015.24 540.156 1015.05 540.087 1014.98 539.948L1002.08 511.816C1001.49 510.499 1000.87 509.563 1000.21 509.008C999.587 508.419 998.772 508.124 997.767 508.124C997.663 508.124 997.611 508.02 997.611 507.812C997.611 507.604 997.663 507.5 997.767 507.5C998.217 507.5 998.668 507.517 999.119 507.552C999.569 507.587 1000.02 507.621 1000.47 507.656C1000.96 507.656 1001.46 507.656 1001.98 507.656C1003.09 507.656 1003.97 507.639 1004.63 507.604C1005.29 507.535 1005.88 507.5 1006.4 507.5C1006.5 507.5 1006.55 507.604 1006.55 507.812C1006.55 508.02 1006.5 508.124 1006.4 508.124C1005.32 508.124 1004.73 508.332 1004.63 508.748C1004.56 509.129 1004.87 510.083 1005.57 511.608L1017.16 536.412L1015.29 538.908L1026.05 512.024C1026.57 510.707 1026.57 509.736 1026.05 509.112C1025.53 508.453 1024.36 508.124 1022.52 508.124C1022.41 508.124 1022.36 508.02 1022.36 507.812C1022.36 507.604 1022.41 507.5 1022.52 507.5C1023.35 507.5 1024.15 507.535 1024.91 507.604C1025.67 507.639 1026.66 507.656 1027.87 507.656C1028.85 507.656 1029.64 507.639 1030.27 507.604C1030.89 507.535 1031.64 507.5 1032.5 507.5ZM1008.53 521.904L1012.48 511.92C1013.04 510.568 1013.19 509.597 1012.95 509.008C1012.71 508.419 1012.01 508.124 1010.87 508.124C1010.77 508.124 1010.71 508.02 1010.71 507.812C1010.71 507.604 1010.77 507.5 1010.87 507.5C1011.22 507.5 1011.53 507.517 1011.81 507.552C1012.12 507.587 1012.45 507.621 1012.79 507.656C1013.18 507.656 1013.66 507.656 1014.25 507.656C1015.22 507.656 1016 507.639 1016.59 507.604C1017.21 507.535 1017.94 507.5 1018.77 507.5C1018.84 507.5 1018.88 507.604 1018.88 507.812C1018.88 508.02 1018.84 508.124 1018.77 508.124C1017.7 508.124 1016.73 508.401 1015.86 508.956C1015 509.511 1014.25 510.603 1013.63 512.232L1009.31 523.048L1008.53 521.904ZM1037.95 525.7L1038.47 524.66H1052.25L1052.61 525.7H1037.95ZM1064.21 539.376C1064.35 539.376 1064.42 539.48 1064.42 539.688C1064.42 539.896 1064.35 540 1064.21 540C1063.2 540 1062.18 539.965 1061.14 539.896C1060.1 539.827 1059.09 539.792 1058.12 539.792C1057.05 539.792 1056.11 539.827 1055.32 539.896C1054.52 539.965 1053.63 540 1052.66 540C1052.52 540 1052.46 539.896 1052.46 539.688C1052.46 539.48 1052.52 539.376 1052.66 539.376C1054.5 539.376 1055.64 539.116 1056.1 538.596C1056.55 538.041 1056.42 537.019 1055.73 535.528L1044.19 511.14L1045.49 509.528L1035.4 533.396C1034.53 535.511 1034.48 537.036 1035.24 537.972C1036.01 538.908 1037.51 539.376 1039.77 539.376C1039.94 539.376 1040.03 539.48 1040.03 539.688C1040.03 539.896 1039.94 540 1039.77 540C1038.73 540 1037.77 539.965 1036.91 539.896C1036.04 539.827 1034.95 539.792 1033.63 539.792C1032.38 539.792 1031.38 539.827 1030.62 539.896C1029.89 539.965 1028.99 540 1027.91 540C1027.77 540 1027.7 539.896 1027.7 539.688C1027.7 539.48 1027.77 539.376 1027.91 539.376C1028.85 539.376 1029.66 539.203 1030.36 538.856C1031.05 538.475 1031.69 537.833 1032.28 536.932C1032.9 535.996 1033.58 534.661 1034.31 532.928L1045.28 507.032C1045.35 506.928 1045.47 506.876 1045.64 506.876C1045.82 506.876 1045.92 506.928 1045.96 507.032L1058.23 532.876C1059.02 534.575 1059.74 535.909 1060.36 536.88C1060.98 537.816 1061.59 538.475 1062.18 538.856C1062.8 539.203 1063.48 539.376 1064.21 539.376ZM1070.61 534.332V508.696L1071.81 508.8V534.332C1071.81 536.135 1072.12 537.435 1072.74 538.232C1073.37 538.995 1074.41 539.376 1075.86 539.376C1075.97 539.376 1076.02 539.48 1076.02 539.688C1076.02 539.896 1075.97 540 1075.86 540C1075.17 540 1074.46 539.983 1073.73 539.948C1073 539.913 1072.19 539.896 1071.29 539.896C1070.42 539.896 1069.59 539.913 1068.79 539.948C1067.99 539.983 1067.23 540 1066.5 540C1066.43 540 1066.4 539.896 1066.4 539.688C1066.4 539.48 1066.43 539.376 1066.5 539.376C1068.03 539.376 1069.09 538.995 1069.68 538.232C1070.3 537.435 1070.61 536.135 1070.61 534.332ZM1096.82 540.624C1096.82 540.693 1096.73 540.728 1096.56 540.728C1096.39 540.763 1096.26 540.763 1096.2 540.728L1072.28 511.764C1071.1 510.343 1070.04 509.389 1069.1 508.904C1068.2 508.384 1067.34 508.124 1066.5 508.124C1066.4 508.124 1066.35 508.02 1066.35 507.812C1066.35 507.604 1066.4 507.5 1066.5 507.5C1067.13 507.5 1067.75 507.517 1068.38 507.552C1069.03 507.587 1069.62 507.604 1070.14 507.604C1070.77 507.604 1071.36 507.587 1071.91 507.552C1072.47 507.517 1072.88 507.5 1073.16 507.5C1073.61 507.5 1073.92 507.708 1074.1 508.124C1074.27 508.505 1074.77 509.199 1075.6 510.204L1096.4 535.736L1096.82 540.624ZM1096.82 513.22V540.624L1095.62 539.012V513.22C1095.62 511.417 1095.31 510.117 1094.69 509.32C1094.1 508.523 1093.09 508.124 1091.67 508.124C1091.6 508.124 1091.57 508.02 1091.57 507.812C1091.57 507.604 1091.6 507.5 1091.67 507.5C1092.36 507.5 1093.08 507.535 1093.8 507.604C1094.57 507.639 1095.38 507.656 1096.25 507.656C1097.08 507.656 1097.89 507.639 1098.69 507.604C1099.52 507.535 1100.29 507.5 1100.98 507.5C1101.08 507.5 1101.14 507.604 1101.14 507.812C1101.14 508.02 1101.08 508.124 1100.98 508.124C1099.49 508.124 1098.41 508.523 1097.76 509.32C1097.13 510.117 1096.82 511.417 1096.82 513.22ZM1123.37 540.624C1120.42 540.624 1117.79 540.173 1115.46 539.272C1113.14 538.371 1111.18 537.14 1109.59 535.58C1107.99 533.985 1106.78 532.165 1105.95 530.12C1105.12 528.075 1104.7 525.891 1104.7 523.568C1104.7 520.968 1105.19 518.663 1106.16 516.652C1107.16 514.607 1108.55 512.856 1110.32 511.4C1112.08 509.944 1114.15 508.835 1116.5 508.072C1118.9 507.309 1121.46 506.928 1124.2 506.928C1126.07 506.928 1127.81 507.101 1129.4 507.448C1131.03 507.795 1132.38 508.297 1133.46 508.956C1133.7 509.095 1133.84 509.216 1133.87 509.32C1133.94 509.424 1133.99 509.684 1134.03 510.1L1134.65 516.236C1134.65 516.34 1134.57 516.409 1134.39 516.444C1134.22 516.479 1134.1 516.427 1134.03 516.288C1133.68 515.04 1133.21 513.896 1132.62 512.856C1132.04 511.816 1131.31 510.932 1130.44 510.204C1129.57 509.441 1128.53 508.852 1127.32 508.436C1126.14 507.985 1124.77 507.76 1123.21 507.76C1120.51 507.76 1118.05 508.367 1115.83 509.58C1113.64 510.793 1111.91 512.527 1110.63 514.78C1109.35 517.033 1108.7 519.703 1108.7 522.788C1108.7 524.903 1109.03 526.983 1109.69 529.028C1110.35 531.039 1111.34 532.876 1112.66 534.54C1113.97 536.169 1115.64 537.469 1117.65 538.44C1119.66 539.376 1122.03 539.844 1124.77 539.844C1126.4 539.844 1127.7 539.636 1128.67 539.22C1129.68 538.804 1130.39 538.128 1130.8 537.192C1131.26 536.256 1131.48 535.025 1131.48 533.5C1131.48 531.836 1131.36 530.623 1131.12 529.86C1130.91 529.063 1130.39 528.543 1129.56 528.3C1128.76 528.057 1127.42 527.936 1125.55 527.936C1125.34 527.936 1125.24 527.797 1125.24 527.52C1125.24 527.243 1125.33 527.104 1125.5 527.104C1127.72 527.243 1129.73 527.329 1131.53 527.364C1133.34 527.364 1135.22 527.312 1137.2 527.208C1137.37 527.208 1137.46 527.329 1137.46 527.572C1137.46 527.815 1137.37 527.936 1137.2 527.936C1136.4 527.901 1135.81 528.023 1135.43 528.3C1135.05 528.543 1134.81 529.097 1134.7 529.964C1134.6 530.831 1134.55 532.183 1134.55 534.02C1134.55 535.164 1134.58 536.013 1134.65 536.568C1134.72 537.123 1134.77 537.539 1134.81 537.816C1134.88 538.059 1134.91 538.319 1134.91 538.596C1134.91 538.804 1134.88 538.943 1134.81 539.012C1134.74 539.081 1134.58 539.151 1134.34 539.22C1132.57 539.601 1130.72 539.931 1128.78 540.208C1126.87 540.485 1125.07 540.624 1123.37 540.624Z" fill="#27221F"/>
</g>
<path d="M1140 570V568H60V570V572H1140V570Z" fill="#27221F" fill-opacity="0.5" mask="url(#path-1-inside-1_475_690)"/>
<defs>
<clipPath id="clip0_475_690">
<path d="M60 60H1140V570H60V60Z" fill="white"/>
</clipPath>
</defs>
</svg>
